<svg width="64" height="64" viewBox="0 0 32 32" fill="none" xmlns="http://www.w3.org/2000/svg">
  <defs>
    <linearGradient id="logo_left" x1="10" y1="3" x2="10" y2="29" gradientUnits="userSpaceOnUse">
      <stop stop-color="#22d3ee" />
      <stop offset="1" stop-color="#3b82f6" />
    </linearGradient>
    <linearGradient id="logo_right" x1="22" y1="3" x2="22" y2="29" gradientUnits="userSpaceOnUse">
      <stop stop-color="#a855f7" />
      <stop offset="1" stop-color="#6366f1" />
    </linearGradient>
    <linearGradient id="logo_diag" x1="10" y1="3" x2="22" y2="29" gradientUnits="userSpaceOnUse">
      <stop stop-color="#60a5fa" />
      <stop offset="1" stop-color="#c084fc" />
    </linearGradient>
  </defs>
  <path d="M7 6C7 4.34315 8.34315 3 10 3V3C11.6569 3 13 4.34315 13 6V26C13 27.6569 11.6569 29 10 29V29C8.34315 29 7 27.6569 7 26V6Z" fill="url(#logo_left)" />
  <path d="M19 6C19 4.34315 20.3431 3 22 3V3C23.6569 3 25 4.34315 25 6V26C25 27.6569 23.6569 29 22 29V29C20.3431 29 19 27.6569 19 26V6Z" fill="url(#logo_right)" />
  <path d="M13 6C13 4.34315 11.6569 3 10 3C10.7403 3 11.4177 3.27239 11.9575 3.72793L23.0425 28.2721C22.5027 28.7276 21.8253 29 21.085 29C19.4281 29 18.085 27.6569 18.085 26V26V16.5L13 6Z" fill="url(#logo_diag)" />
</svg>
